%
M48
M72
T01C0.02165
T02C0.03200
T03C0.03346
T04C0.03543
T05C0.03937
T06C0.04000
T07C0.05906
T08C0.12500
%
T01
X156250Y106800
X181250Y96800
X194733Y106800
X196250Y126800
X216250Y146800
X241250Y146800
X281250Y166800
X276250Y176800
X286250Y190800
X276250Y202178
X286250Y206800
X281250Y211800
X271250Y221800
X261250Y236800
X266250Y246800
X251250Y256800
X246250Y251800
X236250Y246800
X241250Y216800
X212250Y190800
X201250Y181800
X191250Y191800
X161250Y186800
X151250Y196800
X146250Y206800
X131250Y201800
X161250Y216800
X181250Y221800
X161250Y246800
X146250Y256800
X186250Y261800
X196250Y251800
X271250Y281800
X301250Y301800
X331250Y311800
X336250Y291800
X286250Y251800
X311250Y211800
X306250Y181800
X286250Y146800
X316250Y126800
X331250Y121800
X341250Y121800
X341250Y126800
X281250Y106800
X241250Y81800
X226250Y81800
X219250Y91800
X219250Y96800
X171250Y66800
X226250Y16800
X261250Y26800
X296250Y26800
X181250Y161800
X166250Y166800
X231250Y186800
X301250Y361800
X327567Y361800
T02
X326250Y276800
X326250Y266800
X326250Y256800
X326250Y246800
X326250Y236800
X326250Y226800
X326250Y216800
X326250Y206800
X326250Y196800
X326250Y186800
X326250Y176800
X326250Y166800
X326250Y156800
X326250Y146800
X326250Y136800
X306250Y136800
X296250Y146800
X296250Y156800
X296250Y166800
X296250Y176800
X296250Y186800
X296250Y196800
X296250Y206800
X296250Y216800
X296250Y226800
X296250Y236800
X296250Y246800
X296250Y256800
X296250Y266800
X296250Y276800
X351250Y276800
X351250Y266800
X396250Y266800
X396250Y256800
X396250Y246800
X396250Y236800
X396250Y226800
X396250Y216800
X396250Y206800
X396250Y196800
X396250Y186800
X396250Y176800
X396250Y166800
X396250Y156800
X396250Y146800
X396250Y121800
X386250Y121800
X386250Y96800
X376250Y96800
X346250Y121800
X336250Y96800
X326250Y96800
X306250Y96800
X271250Y146800
X271250Y156800
X356250Y151800
X366250Y151800
X356250Y181800
X356250Y201800
X426250Y196800
X426250Y206800
X426250Y216800
X426250Y226800
X426250Y236800
X426250Y246800
X426250Y256800
X426250Y266800
X426250Y276800
X396250Y276800
X426250Y186800
X426250Y176800
X426250Y166800
X426250Y156800
X426250Y146800
X441250Y136800
X451250Y136800
X436250Y121800
X426250Y96800
X181250Y256800
X161250Y256800
X161250Y296800
X146250Y306800
X136250Y306800
X181250Y296800
T03
X126880Y282143
X126880Y262457
T04
X121250Y216643
X121250Y206800
X121250Y196957
T05
X119557Y67272
X119557Y79083
X119557Y90894
X119557Y102706
X119557Y114517
X119557Y126328
X146250Y126800
X146250Y116800
X146250Y106800
X146250Y96800
X146250Y86800
X146250Y76800
X146250Y66800
X216250Y261957
X216250Y281643
X446407Y111800
X466093Y111800
T06
X456250Y79800
X446250Y79800
X446250Y69800
X446250Y59800
X456250Y59800
X456250Y69800
X456250Y49800
X446250Y49800
X446250Y39800
X446250Y29800
X456250Y29800
X456250Y39800
X456250Y19800
X456250Y9800
X446250Y9800
X446250Y19800
X426250Y19800
X426250Y9800
X416250Y9800
X416250Y19800
X406250Y19800
X406250Y9800
X396250Y9800
X396250Y19800
X386250Y19800
X386250Y9800
X376250Y9800
X376250Y19800
X366250Y19800
X366250Y9800
X356250Y9800
X356250Y19800
X346250Y19800
X346250Y9800
X336250Y9800
X336250Y19800
X336250Y29800
X336250Y39800
X346250Y39800
X346250Y29800
X356250Y29800
X356250Y39800
X366250Y39800
X366250Y29800
X376250Y29800
X376250Y39800
X386250Y39800
X386250Y29800
X396250Y29800
X396250Y39800
X406250Y39800
X406250Y29800
X416250Y29800
X416250Y39800
X426250Y39800
X426250Y29800
X426250Y49800
X416250Y49800
X406250Y49800
X396250Y49800
X386250Y49800
X376250Y49800
X366250Y49800
X356250Y49800
X346250Y49800
X336250Y49800
X336250Y59800
X336250Y69800
X346250Y69800
X346250Y59800
X356250Y59800
X356250Y69800
X366250Y69800
X366250Y59800
X376250Y59800
X376250Y69800
X386250Y69800
X386250Y59800
X396250Y59800
X396250Y69800
X406250Y69800
X406250Y59800
X416250Y59800
X416250Y69800
X426250Y69800
X426250Y59800
X426250Y79800
X416250Y79800
X406250Y79800
X396250Y79800
X386250Y79800
X376250Y79800
X366250Y79800
X356250Y79800
X346250Y79800
X336250Y79800
X316250Y79800
X306250Y79800
X306250Y69800
X306250Y59800
X316250Y59800
X316250Y69800
X316250Y49800
X306250Y49800
X306250Y39800
X306250Y29800
X316250Y29800
X316250Y39800
X316250Y19800
X316250Y9800
X306250Y9800
X306250Y19800
X211250Y16800
X211250Y26800
X201250Y26800
X201250Y16800
X201250Y36800
X201250Y46800
X211250Y46800
X211250Y36800
X211250Y56800
X211250Y66800
X201250Y66800
X201250Y56800
X201250Y76800
X201250Y86800
X211250Y86800
X211250Y76800
X211250Y96800
X211250Y106800
X201250Y106800
X201250Y96800
X201250Y116800
X211250Y116800
X231250Y96800
X156250Y66800
X181250Y36800
X131250Y161800
X121250Y161800
X146250Y226800
X156250Y226800
X166250Y226800
X176250Y226800
X256250Y231800
X256250Y241800
X256250Y251800
X256250Y261800
X256250Y271800
X291250Y311800
X291250Y321800
X291250Y331800
X291250Y341800
X291250Y351800
X291250Y361800
X291250Y371800
X271250Y371800
X271250Y361800
X271250Y331800
X271250Y321800
X321250Y321800
X321250Y311800
X321250Y331800
X321250Y341800
X321250Y351800
X321250Y361800
X321250Y371800
X441250Y276800
X441250Y266800
X441250Y256800
X381250Y256800
X381250Y266800
X381250Y246800
X381250Y221800
X381250Y211800
X381250Y201800
X381250Y191800
T07
X116250Y258520
X116250Y286080
T08
X116250Y307300
X116250Y382300
X491250Y382300
X491250Y307300
M30
