G75*
%MOIN*%
%OFA0B0*%
%FSLAX25Y25*%
%IPPOS*%
%LPD*%
%AMOC8*
5,1,8,0,0,1.08239X$1,22.5*
%
%ADD10C,0.00000*%
%ADD11C,0.05600*%
%ADD12R,0.05315X0.01575*%
%ADD13C,0.05746*%
%ADD14C,0.08858*%
%ADD15C,0.07400*%
%ADD16C,0.05943*%
%ADD17OC8,0.05600*%
%ADD18C,0.06337*%
%ADD19C,0.05600*%
%ADD20R,0.06337X0.06337*%
%ADD21OC8,0.07400*%
%ADD22C,0.01200*%
%ADD23C,0.04165*%
%ADD24C,0.01600*%
%ADD25C,0.00800*%
%ADD26OC8,0.04165*%
D10*
X0106250Y0001800D02*
X0106250Y0395501D01*
X0499951Y0395501D01*
X0499951Y0001800D01*
X0106250Y0001800D01*
X0110000Y0307300D02*
X0110002Y0307458D01*
X0110008Y0307615D01*
X0110018Y0307773D01*
X0110032Y0307930D01*
X0110050Y0308086D01*
X0110071Y0308243D01*
X0110097Y0308398D01*
X0110127Y0308553D01*
X0110160Y0308707D01*
X0110198Y0308860D01*
X0110239Y0309013D01*
X0110284Y0309164D01*
X0110333Y0309314D01*
X0110386Y0309462D01*
X0110442Y0309610D01*
X0110503Y0309755D01*
X0110566Y0309900D01*
X0110634Y0310042D01*
X0110705Y0310183D01*
X0110779Y0310322D01*
X0110857Y0310459D01*
X0110939Y0310594D01*
X0111023Y0310727D01*
X0111112Y0310858D01*
X0111203Y0310986D01*
X0111298Y0311113D01*
X0111395Y0311236D01*
X0111496Y0311358D01*
X0111600Y0311476D01*
X0111707Y0311592D01*
X0111817Y0311705D01*
X0111929Y0311816D01*
X0112045Y0311923D01*
X0112163Y0312028D01*
X0112283Y0312130D01*
X0112406Y0312228D01*
X0112532Y0312324D01*
X0112660Y0312416D01*
X0112790Y0312505D01*
X0112922Y0312591D01*
X0113057Y0312673D01*
X0113194Y0312752D01*
X0113332Y0312827D01*
X0113472Y0312899D01*
X0113615Y0312967D01*
X0113758Y0313032D01*
X0113904Y0313093D01*
X0114051Y0313150D01*
X0114199Y0313204D01*
X0114349Y0313254D01*
X0114499Y0313300D01*
X0114651Y0313342D01*
X0114804Y0313381D01*
X0114958Y0313415D01*
X0115113Y0313446D01*
X0115268Y0313472D01*
X0115424Y0313495D01*
X0115581Y0313514D01*
X0115738Y0313529D01*
X0115895Y0313540D01*
X0116053Y0313547D01*
X0116211Y0313550D01*
X0116368Y0313549D01*
X0116526Y0313544D01*
X0116683Y0313535D01*
X0116841Y0313522D01*
X0116997Y0313505D01*
X0117154Y0313484D01*
X0117309Y0313460D01*
X0117464Y0313431D01*
X0117619Y0313398D01*
X0117772Y0313362D01*
X0117925Y0313321D01*
X0118076Y0313277D01*
X0118226Y0313229D01*
X0118375Y0313178D01*
X0118523Y0313122D01*
X0118669Y0313063D01*
X0118814Y0313000D01*
X0118957Y0312933D01*
X0119098Y0312863D01*
X0119237Y0312790D01*
X0119375Y0312713D01*
X0119511Y0312632D01*
X0119644Y0312548D01*
X0119775Y0312461D01*
X0119904Y0312370D01*
X0120031Y0312276D01*
X0120156Y0312179D01*
X0120277Y0312079D01*
X0120397Y0311976D01*
X0120513Y0311870D01*
X0120627Y0311761D01*
X0120739Y0311649D01*
X0120847Y0311535D01*
X0120952Y0311417D01*
X0121055Y0311297D01*
X0121154Y0311175D01*
X0121250Y0311050D01*
X0121343Y0310922D01*
X0121433Y0310793D01*
X0121519Y0310661D01*
X0121603Y0310527D01*
X0121682Y0310391D01*
X0121759Y0310253D01*
X0121831Y0310113D01*
X0121900Y0309971D01*
X0121966Y0309828D01*
X0122028Y0309683D01*
X0122086Y0309536D01*
X0122141Y0309388D01*
X0122192Y0309239D01*
X0122239Y0309088D01*
X0122282Y0308937D01*
X0122321Y0308784D01*
X0122357Y0308630D01*
X0122388Y0308476D01*
X0122416Y0308321D01*
X0122440Y0308165D01*
X0122460Y0308008D01*
X0122476Y0307851D01*
X0122488Y0307694D01*
X0122496Y0307537D01*
X0122500Y0307379D01*
X0122500Y0307221D01*
X0122496Y0307063D01*
X0122488Y0306906D01*
X0122476Y0306749D01*
X0122460Y0306592D01*
X0122440Y0306435D01*
X0122416Y0306279D01*
X0122388Y0306124D01*
X0122357Y0305970D01*
X0122321Y0305816D01*
X0122282Y0305663D01*
X0122239Y0305512D01*
X0122192Y0305361D01*
X0122141Y0305212D01*
X0122086Y0305064D01*
X0122028Y0304917D01*
X0121966Y0304772D01*
X0121900Y0304629D01*
X0121831Y0304487D01*
X0121759Y0304347D01*
X0121682Y0304209D01*
X0121603Y0304073D01*
X0121519Y0303939D01*
X0121433Y0303807D01*
X0121343Y0303678D01*
X0121250Y0303550D01*
X0121154Y0303425D01*
X0121055Y0303303D01*
X0120952Y0303183D01*
X0120847Y0303065D01*
X0120739Y0302951D01*
X0120627Y0302839D01*
X0120513Y0302730D01*
X0120397Y0302624D01*
X0120277Y0302521D01*
X0120156Y0302421D01*
X0120031Y0302324D01*
X0119904Y0302230D01*
X0119775Y0302139D01*
X0119644Y0302052D01*
X0119511Y0301968D01*
X0119375Y0301887D01*
X0119237Y0301810D01*
X0119098Y0301737D01*
X0118957Y0301667D01*
X0118814Y0301600D01*
X0118669Y0301537D01*
X0118523Y0301478D01*
X0118375Y0301422D01*
X0118226Y0301371D01*
X0118076Y0301323D01*
X0117925Y0301279D01*
X0117772Y0301238D01*
X0117619Y0301202D01*
X0117464Y0301169D01*
X0117309Y0301140D01*
X0117154Y0301116D01*
X0116997Y0301095D01*
X0116841Y0301078D01*
X0116683Y0301065D01*
X0116526Y0301056D01*
X0116368Y0301051D01*
X0116211Y0301050D01*
X0116053Y0301053D01*
X0115895Y0301060D01*
X0115738Y0301071D01*
X0115581Y0301086D01*
X0115424Y0301105D01*
X0115268Y0301128D01*
X0115113Y0301154D01*
X0114958Y0301185D01*
X0114804Y0301219D01*
X0114651Y0301258D01*
X0114499Y0301300D01*
X0114349Y0301346D01*
X0114199Y0301396D01*
X0114051Y0301450D01*
X0113904Y0301507D01*
X0113758Y0301568D01*
X0113615Y0301633D01*
X0113472Y0301701D01*
X0113332Y0301773D01*
X0113194Y0301848D01*
X0113057Y0301927D01*
X0112922Y0302009D01*
X0112790Y0302095D01*
X0112660Y0302184D01*
X0112532Y0302276D01*
X0112406Y0302372D01*
X0112283Y0302470D01*
X0112163Y0302572D01*
X0112045Y0302677D01*
X0111929Y0302784D01*
X0111817Y0302895D01*
X0111707Y0303008D01*
X0111600Y0303124D01*
X0111496Y0303242D01*
X0111395Y0303364D01*
X0111298Y0303487D01*
X0111203Y0303614D01*
X0111112Y0303742D01*
X0111023Y0303873D01*
X0110939Y0304006D01*
X0110857Y0304141D01*
X0110779Y0304278D01*
X0110705Y0304417D01*
X0110634Y0304558D01*
X0110566Y0304700D01*
X0110503Y0304845D01*
X0110442Y0304990D01*
X0110386Y0305138D01*
X0110333Y0305286D01*
X0110284Y0305436D01*
X0110239Y0305587D01*
X0110198Y0305740D01*
X0110160Y0305893D01*
X0110127Y0306047D01*
X0110097Y0306202D01*
X0110071Y0306357D01*
X0110050Y0306514D01*
X0110032Y0306670D01*
X0110018Y0306827D01*
X0110008Y0306985D01*
X0110002Y0307142D01*
X0110000Y0307300D01*
X0110000Y0382300D02*
X0110002Y0382458D01*
X0110008Y0382615D01*
X0110018Y0382773D01*
X0110032Y0382930D01*
X0110050Y0383086D01*
X0110071Y0383243D01*
X0110097Y0383398D01*
X0110127Y0383553D01*
X0110160Y0383707D01*
X0110198Y0383860D01*
X0110239Y0384013D01*
X0110284Y0384164D01*
X0110333Y0384314D01*
X0110386Y0384462D01*
X0110442Y0384610D01*
X0110503Y0384755D01*
X0110566Y0384900D01*
X0110634Y0385042D01*
X0110705Y0385183D01*
X0110779Y0385322D01*
X0110857Y0385459D01*
X0110939Y0385594D01*
X0111023Y0385727D01*
X0111112Y0385858D01*
X0111203Y0385986D01*
X0111298Y0386113D01*
X0111395Y0386236D01*
X0111496Y0386358D01*
X0111600Y0386476D01*
X0111707Y0386592D01*
X0111817Y0386705D01*
X0111929Y0386816D01*
X0112045Y0386923D01*
X0112163Y0387028D01*
X0112283Y0387130D01*
X0112406Y0387228D01*
X0112532Y0387324D01*
X0112660Y0387416D01*
X0112790Y0387505D01*
X0112922Y0387591D01*
X0113057Y0387673D01*
X0113194Y0387752D01*
X0113332Y0387827D01*
X0113472Y0387899D01*
X0113615Y0387967D01*
X0113758Y0388032D01*
X0113904Y0388093D01*
X0114051Y0388150D01*
X0114199Y0388204D01*
X0114349Y0388254D01*
X0114499Y0388300D01*
X0114651Y0388342D01*
X0114804Y0388381D01*
X0114958Y0388415D01*
X0115113Y0388446D01*
X0115268Y0388472D01*
X0115424Y0388495D01*
X0115581Y0388514D01*
X0115738Y0388529D01*
X0115895Y0388540D01*
X0116053Y0388547D01*
X0116211Y0388550D01*
X0116368Y0388549D01*
X0116526Y0388544D01*
X0116683Y0388535D01*
X0116841Y0388522D01*
X0116997Y0388505D01*
X0117154Y0388484D01*
X0117309Y0388460D01*
X0117464Y0388431D01*
X0117619Y0388398D01*
X0117772Y0388362D01*
X0117925Y0388321D01*
X0118076Y0388277D01*
X0118226Y0388229D01*
X0118375Y0388178D01*
X0118523Y0388122D01*
X0118669Y0388063D01*
X0118814Y0388000D01*
X0118957Y0387933D01*
X0119098Y0387863D01*
X0119237Y0387790D01*
X0119375Y0387713D01*
X0119511Y0387632D01*
X0119644Y0387548D01*
X0119775Y0387461D01*
X0119904Y0387370D01*
X0120031Y0387276D01*
X0120156Y0387179D01*
X0120277Y0387079D01*
X0120397Y0386976D01*
X0120513Y0386870D01*
X0120627Y0386761D01*
X0120739Y0386649D01*
X0120847Y0386535D01*
X0120952Y0386417D01*
X0121055Y0386297D01*
X0121154Y0386175D01*
X0121250Y0386050D01*
X0121343Y0385922D01*
X0121433Y0385793D01*
X0121519Y0385661D01*
X0121603Y0385527D01*
X0121682Y0385391D01*
X0121759Y0385253D01*
X0121831Y0385113D01*
X0121900Y0384971D01*
X0121966Y0384828D01*
X0122028Y0384683D01*
X0122086Y0384536D01*
X0122141Y0384388D01*
X0122192Y0384239D01*
X0122239Y0384088D01*
X0122282Y0383937D01*
X0122321Y0383784D01*
X0122357Y0383630D01*
X0122388Y0383476D01*
X0122416Y0383321D01*
X0122440Y0383165D01*
X0122460Y0383008D01*
X0122476Y0382851D01*
X0122488Y0382694D01*
X0122496Y0382537D01*
X0122500Y0382379D01*
X0122500Y0382221D01*
X0122496Y0382063D01*
X0122488Y0381906D01*
X0122476Y0381749D01*
X0122460Y0381592D01*
X0122440Y0381435D01*
X0122416Y0381279D01*
X0122388Y0381124D01*
X0122357Y0380970D01*
X0122321Y0380816D01*
X0122282Y0380663D01*
X0122239Y0380512D01*
X0122192Y0380361D01*
X0122141Y0380212D01*
X0122086Y0380064D01*
X0122028Y0379917D01*
X0121966Y0379772D01*
X0121900Y0379629D01*
X0121831Y0379487D01*
X0121759Y0379347D01*
X0121682Y0379209D01*
X0121603Y0379073D01*
X0121519Y0378939D01*
X0121433Y0378807D01*
X0121343Y0378678D01*
X0121250Y0378550D01*
X0121154Y0378425D01*
X0121055Y0378303D01*
X0120952Y0378183D01*
X0120847Y0378065D01*
X0120739Y0377951D01*
X0120627Y0377839D01*
X0120513Y0377730D01*
X0120397Y0377624D01*
X0120277Y0377521D01*
X0120156Y0377421D01*
X0120031Y0377324D01*
X0119904Y0377230D01*
X0119775Y0377139D01*
X0119644Y0377052D01*
X0119511Y0376968D01*
X0119375Y0376887D01*
X0119237Y0376810D01*
X0119098Y0376737D01*
X0118957Y0376667D01*
X0118814Y0376600D01*
X0118669Y0376537D01*
X0118523Y0376478D01*
X0118375Y0376422D01*
X0118226Y0376371D01*
X0118076Y0376323D01*
X0117925Y0376279D01*
X0117772Y0376238D01*
X0117619Y0376202D01*
X0117464Y0376169D01*
X0117309Y0376140D01*
X0117154Y0376116D01*
X0116997Y0376095D01*
X0116841Y0376078D01*
X0116683Y0376065D01*
X0116526Y0376056D01*
X0116368Y0376051D01*
X0116211Y0376050D01*
X0116053Y0376053D01*
X0115895Y0376060D01*
X0115738Y0376071D01*
X0115581Y0376086D01*
X0115424Y0376105D01*
X0115268Y0376128D01*
X0115113Y0376154D01*
X0114958Y0376185D01*
X0114804Y0376219D01*
X0114651Y0376258D01*
X0114499Y0376300D01*
X0114349Y0376346D01*
X0114199Y0376396D01*
X0114051Y0376450D01*
X0113904Y0376507D01*
X0113758Y0376568D01*
X0113615Y0376633D01*
X0113472Y0376701D01*
X0113332Y0376773D01*
X0113194Y0376848D01*
X0113057Y0376927D01*
X0112922Y0377009D01*
X0112790Y0377095D01*
X0112660Y0377184D01*
X0112532Y0377276D01*
X0112406Y0377372D01*
X0112283Y0377470D01*
X0112163Y0377572D01*
X0112045Y0377677D01*
X0111929Y0377784D01*
X0111817Y0377895D01*
X0111707Y0378008D01*
X0111600Y0378124D01*
X0111496Y0378242D01*
X0111395Y0378364D01*
X0111298Y0378487D01*
X0111203Y0378614D01*
X0111112Y0378742D01*
X0111023Y0378873D01*
X0110939Y0379006D01*
X0110857Y0379141D01*
X0110779Y0379278D01*
X0110705Y0379417D01*
X0110634Y0379558D01*
X0110566Y0379700D01*
X0110503Y0379845D01*
X0110442Y0379990D01*
X0110386Y0380138D01*
X0110333Y0380286D01*
X0110284Y0380436D01*
X0110239Y0380587D01*
X0110198Y0380740D01*
X0110160Y0380893D01*
X0110127Y0381047D01*
X0110097Y0381202D01*
X0110071Y0381357D01*
X0110050Y0381514D01*
X0110032Y0381670D01*
X0110018Y0381827D01*
X0110008Y0381985D01*
X0110002Y0382142D01*
X0110000Y0382300D01*
X0485000Y0382300D02*
X0485002Y0382458D01*
X0485008Y0382615D01*
X0485018Y0382773D01*
X0485032Y0382930D01*
X0485050Y0383086D01*
X0485071Y0383243D01*
X0485097Y0383398D01*
X0485127Y0383553D01*
X0485160Y0383707D01*
X0485198Y0383860D01*
X0485239Y0384013D01*
X0485284Y0384164D01*
X0485333Y0384314D01*
X0485386Y0384462D01*
X0485442Y0384610D01*
X0485503Y0384755D01*
X0485566Y0384900D01*
X0485634Y0385042D01*
X0485705Y0385183D01*
X0485779Y0385322D01*
X0485857Y0385459D01*
X0485939Y0385594D01*
X0486023Y0385727D01*
X0486112Y0385858D01*
X0486203Y0385986D01*
X0486298Y0386113D01*
X0486395Y0386236D01*
X0486496Y0386358D01*
X0486600Y0386476D01*
X0486707Y0386592D01*
X0486817Y0386705D01*
X0486929Y0386816D01*
X0487045Y0386923D01*
X0487163Y0387028D01*
X0487283Y0387130D01*
X0487406Y0387228D01*
X0487532Y0387324D01*
X0487660Y0387416D01*
X0487790Y0387505D01*
X0487922Y0387591D01*
X0488057Y0387673D01*
X0488194Y0387752D01*
X0488332Y0387827D01*
X0488472Y0387899D01*
X0488615Y0387967D01*
X0488758Y0388032D01*
X0488904Y0388093D01*
X0489051Y0388150D01*
X0489199Y0388204D01*
X0489349Y0388254D01*
X0489499Y0388300D01*
X0489651Y0388342D01*
X0489804Y0388381D01*
X0489958Y0388415D01*
X0490113Y0388446D01*
X0490268Y0388472D01*
X0490424Y0388495D01*
X0490581Y0388514D01*
X0490738Y0388529D01*
X0490895Y0388540D01*
X0491053Y0388547D01*
X0491211Y0388550D01*
X0491368Y0388549D01*
X0491526Y0388544D01*
X0491683Y0388535D01*
X0491841Y0388522D01*
X0491997Y0388505D01*
X0492154Y0388484D01*
X0492309Y0388460D01*
X0492464Y0388431D01*
X0492619Y0388398D01*
X0492772Y0388362D01*
X0492925Y0388321D01*
X0493076Y0388277D01*
X0493226Y0388229D01*
X0493375Y0388178D01*
X0493523Y0388122D01*
X0493669Y0388063D01*
X0493814Y0388000D01*
X0493957Y0387933D01*
X0494098Y0387863D01*
X0494237Y0387790D01*
X0494375Y0387713D01*
X0494511Y0387632D01*
X0494644Y0387548D01*
X0494775Y0387461D01*
X0494904Y0387370D01*
X0495031Y0387276D01*
X0495156Y0387179D01*
X0495277Y0387079D01*
X0495397Y0386976D01*
X0495513Y0386870D01*
X0495627Y0386761D01*
X0495739Y0386649D01*
X0495847Y0386535D01*
X0495952Y0386417D01*
X0496055Y0386297D01*
X0496154Y0386175D01*
X0496250Y0386050D01*
X0496343Y0385922D01*
X0496433Y0385793D01*
X0496519Y0385661D01*
X0496603Y0385527D01*
X0496682Y0385391D01*
X0496759Y0385253D01*
X0496831Y0385113D01*
X0496900Y0384971D01*
X0496966Y0384828D01*
X0497028Y0384683D01*
X0497086Y0384536D01*
X0497141Y0384388D01*
X0497192Y0384239D01*
X0497239Y0384088D01*
X0497282Y0383937D01*
X0497321Y0383784D01*
X0497357Y0383630D01*
X0497388Y0383476D01*
X0497416Y0383321D01*
X0497440Y0383165D01*
X0497460Y0383008D01*
X0497476Y0382851D01*
X0497488Y0382694D01*
X0497496Y0382537D01*
X0497500Y0382379D01*
X0497500Y0382221D01*
X0497496Y0382063D01*
X0497488Y0381906D01*
X0497476Y0381749D01*
X0497460Y0381592D01*
X0497440Y0381435D01*
X0497416Y0381279D01*
X0497388Y0381124D01*
X0497357Y0380970D01*
X0497321Y0380816D01*
X0497282Y0380663D01*
X0497239Y0380512D01*
X0497192Y0380361D01*
X0497141Y0380212D01*
X0497086Y0380064D01*
X0497028Y0379917D01*
X0496966Y0379772D01*
X0496900Y0379629D01*
X0496831Y0379487D01*
X0496759Y0379347D01*
X0496682Y0379209D01*
X0496603Y0379073D01*
X0496519Y0378939D01*
X0496433Y0378807D01*
X0496343Y0378678D01*
X0496250Y0378550D01*
X0496154Y0378425D01*
X0496055Y0378303D01*
X0495952Y0378183D01*
X0495847Y0378065D01*
X0495739Y0377951D01*
X0495627Y0377839D01*
X0495513Y0377730D01*
X0495397Y0377624D01*
X0495277Y0377521D01*
X0495156Y0377421D01*
X0495031Y0377324D01*
X0494904Y0377230D01*
X0494775Y0377139D01*
X0494644Y0377052D01*
X0494511Y0376968D01*
X0494375Y0376887D01*
X0494237Y0376810D01*
X0494098Y0376737D01*
X0493957Y0376667D01*
X0493814Y0376600D01*
X0493669Y0376537D01*
X0493523Y0376478D01*
X0493375Y0376422D01*
X0493226Y0376371D01*
X0493076Y0376323D01*
X0492925Y0376279D01*
X0492772Y0376238D01*
X0492619Y0376202D01*
X0492464Y0376169D01*
X0492309Y0376140D01*
X0492154Y0376116D01*
X0491997Y0376095D01*
X0491841Y0376078D01*
X0491683Y0376065D01*
X0491526Y0376056D01*
X0491368Y0376051D01*
X0491211Y0376050D01*
X0491053Y0376053D01*
X0490895Y0376060D01*
X0490738Y0376071D01*
X0490581Y0376086D01*
X0490424Y0376105D01*
X0490268Y0376128D01*
X0490113Y0376154D01*
X0489958Y0376185D01*
X0489804Y0376219D01*
X0489651Y0376258D01*
X0489499Y0376300D01*
X0489349Y0376346D01*
X0489199Y0376396D01*
X0489051Y0376450D01*
X0488904Y0376507D01*
X0488758Y0376568D01*
X0488615Y0376633D01*
X0488472Y0376701D01*
X0488332Y0376773D01*
X0488194Y0376848D01*
X0488057Y0376927D01*
X0487922Y0377009D01*
X0487790Y0377095D01*
X0487660Y0377184D01*
X0487532Y0377276D01*
X0487406Y0377372D01*
X0487283Y0377470D01*
X0487163Y0377572D01*
X0487045Y0377677D01*
X0486929Y0377784D01*
X0486817Y0377895D01*
X0486707Y0378008D01*
X0486600Y0378124D01*
X0486496Y0378242D01*
X0486395Y0378364D01*
X0486298Y0378487D01*
X0486203Y0378614D01*
X0486112Y0378742D01*
X0486023Y0378873D01*
X0485939Y0379006D01*
X0485857Y0379141D01*
X0485779Y0379278D01*
X0485705Y0379417D01*
X0485634Y0379558D01*
X0485566Y0379700D01*
X0485503Y0379845D01*
X0485442Y0379990D01*
X0485386Y0380138D01*
X0485333Y0380286D01*
X0485284Y0380436D01*
X0485239Y0380587D01*
X0485198Y0380740D01*
X0485160Y0380893D01*
X0485127Y0381047D01*
X0485097Y0381202D01*
X0485071Y0381357D01*
X0485050Y0381514D01*
X0485032Y0381670D01*
X0485018Y0381827D01*
X0485008Y0381985D01*
X0485002Y0382142D01*
X0485000Y0382300D01*
X0485000Y0307300D02*
X0485002Y0307458D01*
X0485008Y0307615D01*
X0485018Y0307773D01*
X0485032Y0307930D01*
X0485050Y0308086D01*
X0485071Y0308243D01*
X0485097Y0308398D01*
X0485127Y0308553D01*
X0485160Y0308707D01*
X0485198Y0308860D01*
X0485239Y0309013D01*
X0485284Y0309164D01*
X0485333Y0309314D01*
X0485386Y0309462D01*
X0485442Y0309610D01*
X0485503Y0309755D01*
X0485566Y0309900D01*
X0485634Y0310042D01*
X0485705Y0310183D01*
X0485779Y0310322D01*
X0485857Y0310459D01*
X0485939Y0310594D01*
X0486023Y0310727D01*
X0486112Y0310858D01*
X0486203Y0310986D01*
X0486298Y0311113D01*
X0486395Y0311236D01*
X0486496Y0311358D01*
X0486600Y0311476D01*
X0486707Y0311592D01*
X0486817Y0311705D01*
X0486929Y0311816D01*
X0487045Y0311923D01*
X0487163Y0312028D01*
X0487283Y0312130D01*
X0487406Y0312228D01*
X0487532Y0312324D01*
X0487660Y0312416D01*
X0487790Y0312505D01*
X0487922Y0312591D01*
X0488057Y0312673D01*
X0488194Y0312752D01*
X0488332Y0312827D01*
X0488472Y0312899D01*
X0488615Y0312967D01*
X0488758Y0313032D01*
X0488904Y0313093D01*
X0489051Y0313150D01*
X0489199Y0313204D01*
X0489349Y0313254D01*
X0489499Y0313300D01*
X0489651Y0313342D01*
X0489804Y0313381D01*
X0489958Y0313415D01*
X0490113Y0313446D01*
X0490268Y0313472D01*
X0490424Y0313495D01*
X0490581Y0313514D01*
X0490738Y0313529D01*
X0490895Y0313540D01*
X0491053Y0313547D01*
X0491211Y0313550D01*
X0491368Y0313549D01*
X0491526Y0313544D01*
X0491683Y0313535D01*
X0491841Y0313522D01*
X0491997Y0313505D01*
X0492154Y0313484D01*
X0492309Y0313460D01*
X0492464Y0313431D01*
X0492619Y0313398D01*
X0492772Y0313362D01*
X0492925Y0313321D01*
X0493076Y0313277D01*
X0493226Y0313229D01*
X0493375Y0313178D01*
X0493523Y0313122D01*
X0493669Y0313063D01*
X0493814Y0313000D01*
X0493957Y0312933D01*
X0494098Y0312863D01*
X0494237Y0312790D01*
X0494375Y0312713D01*
X0494511Y0312632D01*
X0494644Y0312548D01*
X0494775Y0312461D01*
X0494904Y0312370D01*
X0495031Y0312276D01*
X0495156Y0312179D01*
X0495277Y0312079D01*
X0495397Y0311976D01*
X0495513Y0311870D01*
X0495627Y0311761D01*
X0495739Y0311649D01*
X0495847Y0311535D01*
X0495952Y0311417D01*
X0496055Y0311297D01*
X0496154Y0311175D01*
X0496250Y0311050D01*
X0496343Y0310922D01*
X0496433Y0310793D01*
X0496519Y0310661D01*
X0496603Y0310527D01*
X0496682Y0310391D01*
X0496759Y0310253D01*
X0496831Y0310113D01*
X0496900Y0309971D01*
X0496966Y0309828D01*
X0497028Y0309683D01*
X0497086Y0309536D01*
X0497141Y0309388D01*
X0497192Y0309239D01*
X0497239Y0309088D01*
X0497282Y0308937D01*
X0497321Y0308784D01*
X0497357Y0308630D01*
X0497388Y0308476D01*
X0497416Y0308321D01*
X0497440Y0308165D01*
X0497460Y0308008D01*
X0497476Y0307851D01*
X0497488Y0307694D01*
X0497496Y0307537D01*
X0497500Y0307379D01*
X0497500Y0307221D01*
X0497496Y0307063D01*
X0497488Y0306906D01*
X0497476Y0306749D01*
X0497460Y0306592D01*
X0497440Y0306435D01*
X0497416Y0306279D01*
X0497388Y0306124D01*
X0497357Y0305970D01*
X0497321Y0305816D01*
X0497282Y0305663D01*
X0497239Y0305512D01*
X0497192Y0305361D01*
X0497141Y0305212D01*
X0497086Y0305064D01*
X0497028Y0304917D01*
X0496966Y0304772D01*
X0496900Y0304629D01*
X0496831Y0304487D01*
X0496759Y0304347D01*
X0496682Y0304209D01*
X0496603Y0304073D01*
X0496519Y0303939D01*
X0496433Y0303807D01*
X0496343Y0303678D01*
X0496250Y0303550D01*
X0496154Y0303425D01*
X0496055Y0303303D01*
X0495952Y0303183D01*
X0495847Y0303065D01*
X0495739Y0302951D01*
X0495627Y0302839D01*
X0495513Y0302730D01*
X0495397Y0302624D01*
X0495277Y0302521D01*
X0495156Y0302421D01*
X0495031Y0302324D01*
X0494904Y0302230D01*
X0494775Y0302139D01*
X0494644Y0302052D01*
X0494511Y0301968D01*
X0494375Y0301887D01*
X0494237Y0301810D01*
X0494098Y0301737D01*
X0493957Y0301667D01*
X0493814Y0301600D01*
X0493669Y0301537D01*
X0493523Y0301478D01*
X0493375Y0301422D01*
X0493226Y0301371D01*
X0493076Y0301323D01*
X0492925Y0301279D01*
X0492772Y0301238D01*
X0492619Y0301202D01*
X0492464Y0301169D01*
X0492309Y0301140D01*
X0492154Y0301116D01*
X0491997Y0301095D01*
X0491841Y0301078D01*
X0491683Y0301065D01*
X0491526Y0301056D01*
X0491368Y0301051D01*
X0491211Y0301050D01*
X0491053Y0301053D01*
X0490895Y0301060D01*
X0490738Y0301071D01*
X0490581Y0301086D01*
X0490424Y0301105D01*
X0490268Y0301128D01*
X0490113Y0301154D01*
X0489958Y0301185D01*
X0489804Y0301219D01*
X0489651Y0301258D01*
X0489499Y0301300D01*
X0489349Y0301346D01*
X0489199Y0301396D01*
X0489051Y0301450D01*
X0488904Y0301507D01*
X0488758Y0301568D01*
X0488615Y0301633D01*
X0488472Y0301701D01*
X0488332Y0301773D01*
X0488194Y0301848D01*
X0488057Y0301927D01*
X0487922Y0302009D01*
X0487790Y0302095D01*
X0487660Y0302184D01*
X0487532Y0302276D01*
X0487406Y0302372D01*
X0487283Y0302470D01*
X0487163Y0302572D01*
X0487045Y0302677D01*
X0486929Y0302784D01*
X0486817Y0302895D01*
X0486707Y0303008D01*
X0486600Y0303124D01*
X0486496Y0303242D01*
X0486395Y0303364D01*
X0486298Y0303487D01*
X0486203Y0303614D01*
X0486112Y0303742D01*
X0486023Y0303873D01*
X0485939Y0304006D01*
X0485857Y0304141D01*
X0485779Y0304278D01*
X0485705Y0304417D01*
X0485634Y0304558D01*
X0485566Y0304700D01*
X0485503Y0304845D01*
X0485442Y0304990D01*
X0485386Y0305138D01*
X0485333Y0305286D01*
X0485284Y0305436D01*
X0485239Y0305587D01*
X0485198Y0305740D01*
X0485160Y0305893D01*
X0485127Y0306047D01*
X0485097Y0306202D01*
X0485071Y0306357D01*
X0485050Y0306514D01*
X0485032Y0306670D01*
X0485018Y0306827D01*
X0485008Y0306985D01*
X0485002Y0307142D01*
X0485000Y0307300D01*
D11*
X0429050Y0276800D02*
X0423450Y0276800D01*
X0423450Y0266800D02*
X0429050Y0266800D01*
X0429050Y0256800D02*
X0423450Y0256800D01*
X0423450Y0246800D02*
X0429050Y0246800D01*
X0429050Y0236800D02*
X0423450Y0236800D01*
X0423450Y0226800D02*
X0429050Y0226800D01*
X0429050Y0216800D02*
X0423450Y0216800D01*
X0423450Y0206800D02*
X0429050Y0206800D01*
X0429050Y0196800D02*
X0423450Y0196800D01*
X0423450Y0186800D02*
X0429050Y0186800D01*
X0429050Y0176800D02*
X0423450Y0176800D01*
X0423450Y0166800D02*
X0429050Y0166800D01*
X0429050Y0156800D02*
X0423450Y0156800D01*
X0423450Y0146800D02*
X0429050Y0146800D01*
X0399050Y0146800D02*
X0393450Y0146800D01*
X0393450Y0156800D02*
X0399050Y0156800D01*
X0399050Y0166800D02*
X0393450Y0166800D01*
X0393450Y0176800D02*
X0399050Y0176800D01*
X0399050Y0186800D02*
X0393450Y0186800D01*
X0393450Y0196800D02*
X0399050Y0196800D01*
X0399050Y0206800D02*
X0393450Y0206800D01*
X0393450Y0216800D02*
X0399050Y0216800D01*
X0399050Y0226800D02*
X0393450Y0226800D01*
X0393450Y0236800D02*
X0399050Y0236800D01*
X0399050Y0246800D02*
X0393450Y0246800D01*
X0393450Y0256800D02*
X0399050Y0256800D01*
X0399050Y0266800D02*
X0393450Y0266800D01*
X0393450Y0276800D02*
X0399050Y0276800D01*
X0329050Y0276800D02*
X0323450Y0276800D01*
X0323450Y0266800D02*
X0329050Y0266800D01*
X0329050Y0256800D02*
X0323450Y0256800D01*
X0323450Y0246800D02*
X0329050Y0246800D01*
X0329050Y0236800D02*
X0323450Y0236800D01*
X0323450Y0226800D02*
X0329050Y0226800D01*
X0329050Y0216800D02*
X0323450Y0216800D01*
X0323450Y0206800D02*
X0329050Y0206800D01*
X0329050Y0196800D02*
X0323450Y0196800D01*
X0323450Y0186800D02*
X0329050Y0186800D01*
X0329050Y0176800D02*
X0323450Y0176800D01*
X0323450Y0166800D02*
X0329050Y0166800D01*
X0329050Y0156800D02*
X0323450Y0156800D01*
X0323450Y0146800D02*
X0329050Y0146800D01*
X0299050Y0146800D02*
X0293450Y0146800D01*
X0293450Y0156800D02*
X0299050Y0156800D01*
X0299050Y0166800D02*
X0293450Y0166800D01*
X0293450Y0176800D02*
X0299050Y0176800D01*
X0299050Y0186800D02*
X0293450Y0186800D01*
X0293450Y0196800D02*
X0299050Y0196800D01*
X0299050Y0206800D02*
X0293450Y0206800D01*
X0293450Y0216800D02*
X0299050Y0216800D01*
X0299050Y0226800D02*
X0293450Y0226800D01*
X0293450Y0236800D02*
X0299050Y0236800D01*
X0299050Y0246800D02*
X0293450Y0246800D01*
X0293450Y0256800D02*
X0299050Y0256800D01*
X0299050Y0266800D02*
X0293450Y0266800D01*
X0293450Y0276800D02*
X0299050Y0276800D01*
D12*
X0126880Y0277418D03*
X0126880Y0274859D03*
X0126880Y0272300D03*
X0126880Y0269741D03*
X0126880Y0267182D03*
D13*
X0126880Y0262457D03*
X0126880Y0282143D03*
D14*
X0116250Y0286080D03*
X0116250Y0258520D03*
D15*
X0146250Y0226800D03*
X0156250Y0226800D03*
X0166250Y0226800D03*
X0176250Y0226800D03*
X0256250Y0231800D03*
X0256250Y0241800D03*
X0256250Y0251800D03*
X0256250Y0261800D03*
X0256250Y0271800D03*
X0291250Y0311800D03*
X0291250Y0321800D03*
X0291250Y0331800D03*
X0291250Y0341800D03*
X0291250Y0351800D03*
X0291250Y0361800D03*
X0291250Y0371800D03*
X0271250Y0371800D03*
X0271250Y0361800D03*
X0271250Y0331800D03*
X0271250Y0321800D03*
X0321250Y0321800D03*
X0321250Y0311800D03*
X0321250Y0331800D03*
X0321250Y0341800D03*
X0321250Y0351800D03*
X0321250Y0361800D03*
X0321250Y0371800D03*
X0441250Y0276800D03*
X0441250Y0266800D03*
X0441250Y0256800D03*
X0381250Y0256800D03*
X0381250Y0266800D03*
X0381250Y0246800D03*
X0381250Y0221800D03*
X0381250Y0211800D03*
X0381250Y0201800D03*
X0381250Y0191800D03*
X0376250Y0079800D03*
X0366250Y0079800D03*
X0356250Y0079800D03*
X0346250Y0079800D03*
X0336250Y0079800D03*
X0336250Y0069800D03*
X0336250Y0059800D03*
X0346250Y0059800D03*
X0346250Y0069800D03*
X0356250Y0069800D03*
X0356250Y0059800D03*
X0366250Y0059800D03*
X0366250Y0069800D03*
X0376250Y0069800D03*
X0376250Y0059800D03*
X0386250Y0059800D03*
X0386250Y0069800D03*
X0396250Y0069800D03*
X0396250Y0059800D03*
X0406250Y0059800D03*
X0406250Y0069800D03*
X0416250Y0069800D03*
X0416250Y0059800D03*
X0426250Y0059800D03*
X0426250Y0069800D03*
X0426250Y0079800D03*
X0416250Y0079800D03*
X0406250Y0079800D03*
X0396250Y0079800D03*
X0386250Y0079800D03*
X0386250Y0049800D03*
X0376250Y0049800D03*
X0366250Y0049800D03*
X0356250Y0049800D03*
X0346250Y0049800D03*
X0336250Y0049800D03*
X0336250Y0039800D03*
X0336250Y0029800D03*
X0346250Y0029800D03*
X0346250Y0039800D03*
X0356250Y0039800D03*
X0356250Y0029800D03*
X0366250Y0029800D03*
X0366250Y0039800D03*
X0376250Y0039800D03*
X0376250Y0029800D03*
X0386250Y0029800D03*
X0386250Y0039800D03*
X0396250Y0039800D03*
X0396250Y0029800D03*
X0406250Y0029800D03*
X0406250Y0039800D03*
X0416250Y0039800D03*
X0416250Y0029800D03*
X0426250Y0029800D03*
X0426250Y0039800D03*
X0426250Y0049800D03*
X0416250Y0049800D03*
X0406250Y0049800D03*
X0396250Y0049800D03*
X0396250Y0019800D03*
X0396250Y0009800D03*
X0386250Y0009800D03*
X0386250Y0019800D03*
X0376250Y0019800D03*
X0376250Y0009800D03*
X0366250Y0009800D03*
X0366250Y0019800D03*
X0356250Y0019800D03*
X0356250Y0009800D03*
X0346250Y0009800D03*
X0346250Y0019800D03*
X0336250Y0019800D03*
X0336250Y0009800D03*
X0316250Y0009800D03*
X0316250Y0019800D03*
X0306250Y0019800D03*
X0306250Y0009800D03*
X0306250Y0029800D03*
X0306250Y0039800D03*
X0316250Y0039800D03*
X0316250Y0029800D03*
X0316250Y0049800D03*
X0306250Y0049800D03*
X0306250Y0059800D03*
X0306250Y0069800D03*
X0316250Y0069800D03*
X0316250Y0059800D03*
X0316250Y0079800D03*
X0306250Y0079800D03*
X0231250Y0096800D03*
X0156250Y0066800D03*
X0181250Y0036800D03*
X0131250Y0161800D03*
X0121250Y0161800D03*
X0406250Y0019800D03*
X0406250Y0009800D03*
X0416250Y0009800D03*
X0416250Y0019800D03*
X0426250Y0019800D03*
X0426250Y0009800D03*
X0446250Y0009800D03*
X0446250Y0019800D03*
X0456250Y0019800D03*
X0456250Y0009800D03*
X0456250Y0029800D03*
X0456250Y0039800D03*
X0446250Y0039800D03*
X0446250Y0029800D03*
X0446250Y0049800D03*
X0456250Y0049800D03*
X0456250Y0059800D03*
X0456250Y0069800D03*
X0446250Y0069800D03*
X0446250Y0059800D03*
X0446250Y0079800D03*
X0456250Y0079800D03*
D16*
X0121250Y0196957D03*
X0121250Y0206800D03*
X0121250Y0216643D03*
D17*
X0161250Y0256800D03*
X0181250Y0256800D03*
X0181250Y0296800D03*
X0161250Y0296800D03*
X0146250Y0306800D03*
X0136250Y0306800D03*
X0271250Y0156800D03*
X0271250Y0146800D03*
X0306250Y0136800D03*
X0326250Y0136800D03*
X0346250Y0121800D03*
X0336250Y0096800D03*
X0326250Y0096800D03*
X0306250Y0096800D03*
X0376250Y0096800D03*
X0386250Y0096800D03*
X0386250Y0121800D03*
X0396250Y0121800D03*
X0426250Y0096800D03*
X0436250Y0121800D03*
X0441250Y0136800D03*
X0451250Y0136800D03*
X0366250Y0151800D03*
X0356250Y0151800D03*
X0356250Y0181800D03*
X0351250Y0266800D03*
X0351250Y0276800D03*
D18*
X0216250Y0281643D03*
X0216250Y0261957D03*
X0446407Y0111800D03*
X0466093Y0111800D03*
D19*
X0356250Y0201800D03*
D20*
X0146250Y0126800D03*
X0146250Y0116800D03*
X0146250Y0106800D03*
X0146250Y0096800D03*
X0146250Y0086800D03*
X0146250Y0076800D03*
X0146250Y0066800D03*
X0119557Y0067272D03*
X0119557Y0079083D03*
X0119557Y0090894D03*
X0119557Y0102706D03*
X0119557Y0114517D03*
X0119557Y0126328D03*
D21*
X0201250Y0116800D03*
X0211250Y0116800D03*
X0211250Y0106800D03*
X0211250Y0096800D03*
X0201250Y0096800D03*
X0201250Y0106800D03*
X0201250Y0086800D03*
X0201250Y0076800D03*
X0211250Y0076800D03*
X0211250Y0086800D03*
X0211250Y0066800D03*
X0211250Y0056800D03*
X0201250Y0056800D03*
X0201250Y0066800D03*
X0201250Y0046800D03*
X0201250Y0036800D03*
X0211250Y0036800D03*
X0211250Y0046800D03*
X0211250Y0026800D03*
X0211250Y0016800D03*
X0201250Y0016800D03*
X0201250Y0026800D03*
D22*
X0176250Y0026800D01*
X0176250Y0006800D01*
X0286250Y0006800D01*
X0286250Y0101800D01*
X0296250Y0111800D01*
X0296250Y0136800D01*
X0306250Y0136800D01*
X0296250Y0141800D02*
X0296250Y0146800D01*
X0296250Y0141800D02*
X0286250Y0141800D01*
X0286250Y0106800D01*
X0281250Y0106800D01*
X0246250Y0126800D02*
X0246250Y0076800D01*
X0211250Y0076800D01*
X0216250Y0081800D02*
X0211250Y0086800D01*
X0214250Y0086800D01*
X0219250Y0091800D01*
X0219250Y0096800D02*
X0211250Y0096800D01*
X0221250Y0101800D02*
X0221250Y0106800D01*
X0226250Y0106800D01*
X0226250Y0116800D01*
X0218180Y0116800D01*
X0217215Y0115835D01*
X0216350Y0116700D01*
X0216350Y0118912D01*
X0216250Y0119012D01*
X0216250Y0146800D01*
X0216250Y0151800D02*
X0221250Y0151800D01*
X0221250Y0121800D01*
X0236250Y0121800D01*
X0241250Y0116800D01*
X0241250Y0081800D01*
X0226250Y0081800D02*
X0216250Y0081800D01*
X0211250Y0086800D02*
X0223250Y0086800D01*
X0223750Y0087300D01*
X0223750Y0099300D01*
X0221250Y0101800D01*
X0201250Y0106800D02*
X0196250Y0106800D01*
X0194733Y0106800D01*
X0196250Y0106800D02*
X0196250Y0114587D01*
X0196150Y0114687D01*
X0196150Y0118912D01*
X0196250Y0119012D01*
X0196250Y0126800D01*
X0201250Y0116800D02*
X0201250Y0181800D01*
X0212250Y0190800D02*
X0212250Y0117800D01*
X0211250Y0116800D01*
X0226250Y0131800D02*
X0226250Y0228972D01*
X0239733Y0242454D01*
X0239733Y0280283D01*
X0241250Y0281800D01*
X0271250Y0281800D01*
X0281250Y0271800D02*
X0306250Y0271800D01*
X0306250Y0276800D01*
X0296250Y0266800D02*
X0286250Y0256800D01*
X0281250Y0256800D01*
X0281250Y0246800D01*
X0271250Y0246800D01*
X0271250Y0221800D01*
X0281250Y0211800D02*
X0281250Y0166800D01*
X0286250Y0156800D02*
X0296250Y0156800D01*
X0286250Y0156800D02*
X0286250Y0146800D01*
X0261250Y0151800D02*
X0251250Y0151800D01*
X0251250Y0156800D01*
X0246250Y0161800D01*
X0241250Y0161800D01*
X0241250Y0216800D01*
X0236250Y0231800D02*
X0256250Y0231800D01*
X0261250Y0236800D01*
X0256250Y0241800D02*
X0246250Y0251800D01*
X0236250Y0246800D02*
X0236250Y0241800D01*
X0221250Y0241800D01*
X0216250Y0236800D01*
X0216250Y0151800D01*
X0236250Y0151800D02*
X0236250Y0231800D01*
X0196250Y0251800D02*
X0186250Y0241800D01*
X0186250Y0206800D01*
X0186250Y0201800D01*
X0186250Y0056800D01*
X0201250Y0056800D01*
X0201250Y0066800D02*
X0191250Y0066800D01*
X0191250Y0191800D01*
X0176250Y0216800D02*
X0181250Y0221800D01*
X0176250Y0216800D02*
X0176250Y0046800D01*
X0201250Y0046800D01*
X0211250Y0046800D02*
X0261250Y0046800D01*
X0261250Y0151800D01*
X0256250Y0141800D02*
X0246250Y0141800D01*
X0246250Y0151800D01*
X0236250Y0151800D01*
X0231250Y0136800D02*
X0231250Y0186800D01*
X0276250Y0176800D02*
X0276250Y0036800D01*
X0211250Y0036800D01*
X0211250Y0026800D02*
X0261250Y0026800D01*
X0226250Y0016800D02*
X0211250Y0016800D01*
X0211250Y0056800D02*
X0256250Y0056800D01*
X0256250Y0141800D01*
X0251250Y0136800D02*
X0231250Y0136800D01*
X0226250Y0131800D02*
X0241250Y0131800D01*
X0246250Y0126800D01*
X0251250Y0136800D02*
X0251250Y0066800D01*
X0211250Y0066800D01*
X0171250Y0066800D02*
X0156250Y0066800D01*
X0146250Y0076800D02*
X0171250Y0076800D01*
X0171250Y0126800D01*
X0166250Y0131800D01*
X0166250Y0166800D01*
X0161250Y0156800D02*
X0151250Y0156800D01*
X0151250Y0196800D01*
X0146250Y0206800D02*
X0146250Y0151800D01*
X0156250Y0151800D01*
X0156250Y0116800D01*
X0161250Y0111800D01*
X0161250Y0096800D01*
X0146250Y0096800D01*
X0137274Y0096800D01*
X0136762Y0096288D01*
X0135937Y0095463D01*
X0119557Y0079083D01*
X0111250Y0086800D02*
X0111250Y0056800D01*
X0121250Y0056800D01*
X0141250Y0056800D02*
X0141250Y0086800D01*
X0146250Y0086800D01*
X0166250Y0086800D01*
X0166250Y0116800D01*
X0161250Y0121800D01*
X0161250Y0156800D01*
X0181250Y0161800D02*
X0181250Y0096800D01*
X0156250Y0106800D02*
X0146250Y0116800D01*
X0146250Y0106800D02*
X0141250Y0106800D01*
X0119557Y0090894D02*
X0115344Y0090894D01*
X0111250Y0086800D01*
X0161250Y0186800D02*
X0161250Y0216800D01*
X0158363Y0221700D02*
X0146150Y0221700D01*
X0141250Y0216800D01*
X0141250Y0211800D01*
X0126250Y0211800D01*
X0121250Y0206800D01*
X0131250Y0201800D02*
X0141250Y0201800D01*
X0158363Y0221700D02*
X0158463Y0221800D01*
X0166250Y0221800D01*
X0166250Y0226800D01*
X0161250Y0231800D01*
X0161250Y0246800D01*
X0161250Y0256800D02*
X0171250Y0256800D01*
X0171250Y0261800D01*
X0186250Y0261800D01*
X0191250Y0251800D02*
X0191250Y0271800D01*
X0226250Y0271800D01*
X0226250Y0301800D01*
X0216250Y0281643D02*
X0171407Y0281643D01*
X0171250Y0281800D01*
X0171250Y0296800D01*
X0161250Y0296800D01*
X0136250Y0276800D02*
X0156250Y0256800D01*
X0136250Y0236800D01*
X0136250Y0231643D01*
X0146250Y0256800D02*
X0135868Y0267182D01*
X0126880Y0267182D01*
X0276250Y0241800D02*
X0276250Y0202178D01*
X0286250Y0201800D02*
X0311250Y0201800D01*
X0326250Y0216800D01*
X0326250Y0226800D02*
X0311250Y0211800D01*
X0311250Y0221800D02*
X0286250Y0221800D01*
X0286250Y0206800D01*
X0286250Y0201800D02*
X0286250Y0190800D01*
X0306250Y0186800D02*
X0306250Y0181800D01*
X0306250Y0186800D02*
X0326250Y0206800D01*
X0311250Y0221800D02*
X0326250Y0236800D01*
X0326250Y0246800D02*
X0336250Y0246800D01*
X0336250Y0291800D01*
X0331250Y0311800D02*
X0321250Y0311800D01*
X0321250Y0341800D02*
X0316250Y0341800D01*
X0316250Y0349587D01*
X0316150Y0349687D01*
X0316150Y0373912D01*
X0316250Y0374012D01*
X0316250Y0381800D01*
X0321250Y0361800D02*
X0327567Y0361800D01*
X0301250Y0361800D02*
X0291250Y0361800D01*
X0281250Y0271800D02*
X0281250Y0261800D01*
X0286250Y0251800D02*
X0291250Y0251800D01*
X0296250Y0256800D01*
X0311250Y0241800D02*
X0276250Y0241800D01*
X0311250Y0241800D02*
X0326250Y0256800D01*
X0371250Y0256800D02*
X0371250Y0181800D01*
X0381250Y0181800D01*
X0396250Y0196800D01*
X0416250Y0176800D01*
X0431250Y0181800D02*
X0441250Y0181800D01*
X0441250Y0136800D01*
X0416250Y0096800D02*
X0416250Y0089300D01*
X0456750Y0089300D01*
X0456750Y0087300D01*
X0456250Y0086800D01*
X0456250Y0079800D01*
X0416250Y0096800D02*
X0386250Y0096800D01*
X0341907Y0096800D02*
X0341907Y0089457D01*
X0341250Y0088800D01*
X0330750Y0088800D01*
X0330750Y0096643D01*
X0330593Y0096800D01*
X0336250Y0096800D02*
X0336250Y0136800D01*
X0341250Y0141800D01*
X0341250Y0161800D01*
X0336250Y0166800D01*
X0326250Y0156800D02*
X0316250Y0156800D01*
X0316250Y0146800D01*
X0321250Y0141800D01*
X0321250Y0111800D01*
X0341250Y0126800D02*
X0341250Y0136800D01*
X0346250Y0141800D01*
X0346250Y0151800D01*
X0356250Y0151800D01*
X0326250Y0146800D02*
X0326250Y0136800D01*
X0406250Y0211800D02*
X0406250Y0276800D01*
X0406250Y0211800D02*
X0466250Y0211800D01*
X0466250Y0196800D01*
X0456250Y0039800D02*
X0456250Y0029800D01*
D23*
X0296250Y0026800D03*
X0261250Y0026800D03*
X0226250Y0016800D03*
X0171250Y0066800D03*
X0181250Y0096800D03*
X0194733Y0106800D03*
X0196250Y0126800D03*
X0216250Y0146800D03*
X0241250Y0146800D03*
X0281250Y0166800D03*
X0276250Y0176800D03*
X0286250Y0190800D03*
X0276250Y0202178D03*
X0286250Y0206800D03*
X0281250Y0211800D03*
X0271250Y0221800D03*
X0261250Y0236800D03*
X0266250Y0246800D03*
X0251250Y0256800D03*
X0246250Y0251800D03*
X0236250Y0246800D03*
X0241250Y0216800D03*
X0212250Y0190800D03*
X0201250Y0181800D03*
X0191250Y0191800D03*
X0161250Y0186800D03*
X0151250Y0196800D03*
X0146250Y0206800D03*
X0131250Y0201800D03*
X0161250Y0216800D03*
X0181250Y0221800D03*
X0161250Y0246800D03*
X0146250Y0256800D03*
X0186250Y0261800D03*
X0196250Y0251800D03*
X0271250Y0281800D03*
X0301250Y0301800D03*
X0331250Y0311800D03*
X0336250Y0291800D03*
X0286250Y0251800D03*
X0311250Y0211800D03*
X0306250Y0181800D03*
X0286250Y0146800D03*
X0281250Y0106800D03*
X0241250Y0081800D03*
X0226250Y0081800D03*
X0219250Y0091800D03*
X0219250Y0096800D03*
X0156250Y0106800D03*
X0181250Y0161800D03*
X0166250Y0166800D03*
X0231250Y0186800D03*
X0301250Y0361800D03*
X0327567Y0361800D03*
D24*
X0336250Y0356800D02*
X0386250Y0306800D01*
X0456250Y0306800D01*
X0456250Y0226800D01*
X0426250Y0226800D01*
X0426250Y0216800D02*
X0461250Y0216800D01*
X0461250Y0311800D01*
X0391250Y0311800D01*
X0346250Y0356800D01*
X0346250Y0389800D01*
X0306250Y0389800D01*
X0306250Y0321800D01*
X0321250Y0321800D01*
X0321250Y0311800D02*
X0326250Y0306800D01*
X0326250Y0276800D01*
X0306250Y0276800D01*
X0296250Y0276800D02*
X0281250Y0276800D01*
X0276250Y0271800D01*
X0256250Y0271800D01*
X0256250Y0261800D02*
X0281250Y0261800D01*
X0266250Y0246800D02*
X0261250Y0246800D01*
X0256250Y0241800D01*
X0251250Y0256800D02*
X0256250Y0261800D01*
X0226250Y0301800D02*
X0301250Y0301800D01*
X0291250Y0321800D02*
X0271250Y0321800D01*
X0271250Y0331800D02*
X0291250Y0331800D01*
X0291250Y0341800D02*
X0271250Y0361800D01*
X0271250Y0371800D02*
X0291250Y0351800D01*
X0311250Y0331800D02*
X0311250Y0386800D01*
X0336250Y0386800D01*
X0336250Y0356800D01*
X0331250Y0351800D02*
X0381250Y0301800D01*
X0451250Y0301800D01*
X0451250Y0236800D01*
X0426250Y0236800D01*
X0426250Y0246800D02*
X0411250Y0261800D01*
X0411250Y0291800D01*
X0381250Y0291800D01*
X0321250Y0351800D01*
X0331250Y0351800D02*
X0331250Y0381800D01*
X0316250Y0381800D01*
X0321250Y0331800D02*
X0311250Y0331800D01*
X0351250Y0276800D02*
X0371250Y0256800D01*
X0381250Y0256800D02*
X0396250Y0256800D01*
X0396250Y0266800D02*
X0381250Y0266800D01*
X0396250Y0276800D02*
X0406250Y0276800D01*
X0426250Y0276800D02*
X0441250Y0276800D01*
X0441250Y0266800D02*
X0426250Y0266800D01*
X0426250Y0256800D02*
X0441250Y0256800D01*
X0396250Y0246800D02*
X0381250Y0246800D01*
X0396250Y0236800D02*
X0381250Y0221800D01*
X0381250Y0211800D02*
X0396250Y0226800D01*
X0396250Y0216800D02*
X0381250Y0201800D01*
X0381250Y0191800D02*
X0396250Y0206800D01*
X0416250Y0206800D02*
X0426250Y0206800D01*
X0416250Y0206800D02*
X0416250Y0181800D01*
X0431250Y0181800D01*
X0426250Y0176800D02*
X0421250Y0171800D01*
X0411250Y0171800D01*
X0411250Y0136800D01*
X0386250Y0136800D01*
X0386250Y0121800D01*
X0386250Y0096800D01*
X0376250Y0096800D01*
X0341907Y0096800D01*
X0330593Y0096800D02*
X0326250Y0096800D01*
X0306250Y0096800D01*
X0296250Y0101800D02*
X0296250Y0026800D01*
X0306250Y0029800D02*
X0306250Y0019800D01*
X0306250Y0009800D01*
X0306250Y0029800D02*
X0306250Y0039800D01*
X0306250Y0049800D01*
X0306250Y0059800D01*
X0306250Y0069800D01*
X0306250Y0079800D01*
X0296250Y0101800D02*
X0321250Y0101800D01*
X0326250Y0106800D01*
X0326250Y0136800D01*
X0331250Y0141800D02*
X0334050Y0144600D01*
X0334050Y0159000D01*
X0326250Y0166800D01*
X0326250Y0176800D02*
X0336250Y0166800D01*
X0326250Y0176800D02*
X0371250Y0176800D01*
X0391250Y0156800D01*
X0396250Y0156800D01*
X0396250Y0166800D02*
X0406250Y0166800D01*
X0406250Y0151800D01*
X0376250Y0151800D01*
X0346250Y0121800D01*
X0341250Y0121800D01*
X0331250Y0121800D02*
X0331250Y0141800D01*
X0316250Y0136800D02*
X0316250Y0126800D01*
X0316250Y0136800D02*
X0296250Y0156800D01*
X0306250Y0136800D02*
X0306250Y0111800D01*
X0321250Y0111800D01*
X0336250Y0079800D02*
X0346250Y0079800D01*
X0356250Y0079800D01*
X0366250Y0079800D01*
X0376250Y0079800D01*
X0386250Y0079800D02*
X0396250Y0079800D01*
X0406250Y0079800D01*
X0416250Y0079800D01*
X0426250Y0079800D01*
X0426250Y0069800D02*
X0416250Y0069800D01*
X0406250Y0069800D01*
X0396250Y0069800D01*
X0386250Y0069800D01*
X0386250Y0059800D02*
X0396250Y0059800D01*
X0406250Y0059800D01*
X0416250Y0059800D01*
X0426250Y0059800D01*
X0426250Y0049800D02*
X0416250Y0049800D01*
X0406250Y0049800D01*
X0396250Y0049800D01*
X0386250Y0049800D01*
X0376250Y0049800D02*
X0366250Y0049800D01*
X0356250Y0049800D01*
X0346250Y0049800D01*
X0336250Y0049800D01*
X0336250Y0039800D02*
X0346250Y0039800D01*
X0356250Y0039800D01*
X0366250Y0039800D01*
X0376250Y0039800D01*
X0376250Y0029800D02*
X0366250Y0029800D01*
X0356250Y0029800D01*
X0346250Y0029800D01*
X0336250Y0029800D01*
X0336250Y0019800D02*
X0346250Y0019800D01*
X0356250Y0019800D01*
X0366250Y0019800D01*
X0376250Y0019800D01*
X0376250Y0009800D02*
X0366250Y0009800D01*
X0356250Y0009800D01*
X0346250Y0009800D01*
X0336250Y0009800D01*
X0386250Y0009800D02*
X0396250Y0009800D01*
X0406250Y0009800D01*
X0416250Y0009800D01*
X0426250Y0009800D01*
X0426250Y0019800D02*
X0416250Y0019800D01*
X0406250Y0019800D01*
X0396250Y0019800D01*
X0386250Y0019800D01*
X0386250Y0029800D02*
X0396250Y0029800D01*
X0406250Y0029800D01*
X0416250Y0029800D01*
X0426250Y0029800D01*
X0426250Y0039800D02*
X0416250Y0039800D01*
X0406250Y0039800D01*
X0396250Y0039800D01*
X0386250Y0039800D01*
X0376250Y0059800D02*
X0366250Y0059800D01*
X0356250Y0059800D01*
X0346250Y0059800D01*
X0336250Y0059800D01*
X0336250Y0069800D02*
X0346250Y0069800D01*
X0356250Y0069800D01*
X0366250Y0069800D01*
X0376250Y0069800D01*
X0426250Y0096800D02*
X0436250Y0106800D01*
X0461250Y0106800D01*
X0466093Y0111643D01*
X0466093Y0111800D01*
X0466250Y0111957D01*
X0466250Y0196800D01*
X0426250Y0176800D02*
X0416250Y0176800D01*
X0451250Y0136800D02*
X0436250Y0121800D01*
X0456250Y0079800D02*
X0456250Y0069800D01*
X0456250Y0059800D01*
X0456250Y0049800D01*
X0456250Y0039800D01*
X0456250Y0029800D02*
X0456250Y0019800D01*
X0456250Y0009800D01*
X0326250Y0196800D02*
X0331250Y0201800D01*
X0356250Y0201800D01*
X0191250Y0251800D02*
X0166250Y0226800D01*
X0146250Y0226800D02*
X0146250Y0241800D01*
X0161250Y0256800D01*
X0136250Y0281800D01*
X0136250Y0306800D01*
X0146250Y0306800D02*
X0171250Y0306800D01*
X0181250Y0296800D01*
X0136250Y0231643D02*
X0121250Y0216643D01*
X0141250Y0201800D02*
X0141250Y0106800D01*
X0141250Y0056800D02*
X0121250Y0056800D01*
X0121250Y0161800D02*
X0121250Y0196957D01*
D25*
X0126880Y0277418D02*
X0135632Y0277418D01*
X0136250Y0276800D01*
D26*
X0316250Y0126800D03*
X0331250Y0121800D03*
X0341250Y0121800D03*
X0341250Y0126800D03*
M02*
